<svg xmlns="http://www.w3.org/2000/svg" viewBox="0 0 540 100" fill="none" className="w-full h-auto">
  <!-- ── ICON: Open Book + PH Monogram + Molecule ── -->
  <!-- Open Book Base -->
  <path d="M12 68 Q50 56 80 64 L80 86 Q50 78 12 90 Z" fill="#1B2D6B"/>
  <path d="M148 68 Q110 56 80 64 L80 86 Q110 78 148 90 Z" fill="#1B2D6B"/>
  <!-- Book spine -->
  <path d="M80 64 L80 86" stroke="#1B2D6B" stroke-width="3"/>
  <!-- Left page fill orange/saffron -->
  <path d="M14 70 Q50 59 78 66 L78 84 Q50 77 14 88 Z" fill="#F97316"/>
  <!-- Right page fill green -->
  <path d="M146 70 Q110 59 82 66 L82 84 Q110 77 146 88 Z" fill="#16A34A"/>
  <!-- Book dark overlay on top of fills -->
  <path d="M12 68 Q50 56 80 64 L80 66 Q50 58 12 70 Z" fill="#1B2D6B"/>
  <path d="M148 68 Q110 56 80 64 L80 66 Q110 58 148 70 Z" fill="#1B2D6B"/>

  <!-- P letter in book -->
  <text x="36" y="82" font-family="'Arial Black', 'Impact', sans-serif" font-weight="900" font-size="28" fill="#1B2D6B" letter-spacing="-1">P</text>
  <!-- H letter in book -->
  <text x="88" y="82" font-family="'Arial Black', 'Impact', sans-serif" font-weight="900" font-size="28" fill="#1B2D6B" letter-spacing="-1">H</text>

  <!-- Molecule structure above book -->
  <!-- Central benzene-like ring -->
  <circle cx="80" cy="34" r="5" fill="#1B2D6B"/>
  <circle cx="98" cy="24" r="4" fill="#1B2D6B"/>
  <circle cx="98" cy="44" r="4" fill="#1B2D6B"/>
  <circle cx="62" cy="24" r="4" fill="#1B2D6B"/>
  <circle cx="62" cy="44" r="4" fill="#1B2D6B"/>
  <!-- Ring bonds -->
  <line x1="80" y1="29" x2="98" y2="24" stroke="#1B2D6B" stroke-width="2.5"/>
  <line x1="98" y1="24" x2="98" y2="44" stroke="#1B2D6B" stroke-width="2.5"/>
  <line x1="98" y1="44" x2="80" y2="39" stroke="#1B2D6B" stroke-width="2.5"/>
  <line x1="80" y1="39" x2="62" y2="44" stroke="#1B2D6B" stroke-width="2.5"/>
  <line x1="62" y1="44" x2="62" y2="24" stroke="#1B2D6B" stroke-width="2.5"/>
  <line x1="62" y1="24" x2="80" y2="29" stroke="#1B2D6B" stroke-width="2.5"/>
  <!-- Outer atoms -->
  <circle cx="80" cy="10" r="5.5" fill="#F97316"/>
  <line x1="80" y1="15.5" x2="80" y2="29" stroke="#1B2D6B" stroke-width="2.5"/>
  <circle cx="112" cy="16" r="4.5" fill="#1B2D6B"/>
  <line x1="98" y1="24" x2="112" y2="16" stroke="#1B2D6B" stroke-width="2.5"/>
  <circle cx="112" cy="52" r="4.5" fill="#1B2D6B"/>
  <line x1="98" y1="44" x2="112" y2="52" stroke="#1B2D6B" stroke-width="2.5"/>
  <circle cx="48" cy="16" r="4.5" fill="#F97316"/>
  <line x1="62" y1="24" x2="48" y2="16" stroke="#1B2D6B" stroke-width="2.5"/>
  <circle cx="48" cy="52" r="4.5" fill="#16A34A"/>
  <line x1="62" y1="44" x2="48" y2="52" stroke="#1B2D6B" stroke-width="2.5"/>
  <!-- Stem from molecule to book -->
  <line x1="80" y1="39" x2="80" y2="64" stroke="#1B2D6B" stroke-width="2.5" stroke-dasharray="2,2"/>

  <!-- Vertical divider -->
  <line x1="172" y1="12" x2="172" y2="88" stroke="#94A3B8" stroke-width="2"/>

  <!-- ── TEXT: POLYMER HUB ── -->
  <text x="190" y="42" font-family="'Space Grotesk', 'Arial Black', sans-serif" font-weight="900" font-size="32" fill="#0F172A" letter-spacing="1.5">POLYMER HUB</text>

  <!-- OF INDIA with orange and green lines -->
  <line x1="190" y1="56" x2="245" y2="56" stroke="#F97316" stroke-width="2.5"/>
  <text x="253" y="62" font-family="'Space Grotesk', 'Arial', sans-serif" font-weight="800" font-size="14" fill="#1E293B" letter-spacing="3.5">OF INDIA</text>
  <line x1="335" y1="56" x2="390" y2="56" stroke="#16A34A" stroke-width="2.5"/>

  <!-- Tagline: Bold & Clear -->
  <text x="190" y="84" font-family="'JetBrains Mono', 'Courier New', monospace" font-weight="800" font-size="12" fill="#475569" letter-spacing="3">KNOWLEDGE  •  INNOVATION  •  FUTURE</text>
</svg>
